<?xml version="1.0" encoding="UTF-8"?>
<svg version="1.1" xmlns="http://www.w3.org/2000/svg" width="1024" height="1024">
<path d="M0 0 C337.92 0 675.84 0 1024 0 C1024 337.92 1024 675.84 1024 1024 C686.08 1024 348.16 1024 0 1024 C0 686.08 0 348.16 0 0 Z " fill="#182231" transform="translate(0,0)"/>
<path d="M0 0 C337.92 0 675.84 0 1024 0 C1024 337.92 1024 675.84 1024 1024 C686.08 1024 348.16 1024 0 1024 C0 686.08 0 348.16 0 0 Z M199.80859375 170.40234375 C197.62463662 172.42227628 195.41546524 174.37795273 193.1640625 176.3203125 C188.91340084 180.02441037 184.91149718 183.94037578 180.9375 187.9375 C180.26912109 188.60201172 179.60074219 189.26652344 178.91210938 189.95117188 C174.40238156 194.46966495 170.16179834 199.1614766 166 204 C164.94275839 205.20301256 163.88419497 206.40486496 162.82421875 207.60546875 C155.88807393 215.50678466 149.25685481 223.54844008 143 232 C142.2579834 232.99507568 142.2579834 232.99507568 141.50097656 234.01025391 C125.21420449 255.91470952 110.83834429 279.28175345 99.01708984 303.90087891 C97.92398709 306.15687926 96.80074714 308.39644926 95.67578125 310.63671875 C49.77933662 403.11272635 39.37448964 513.6709641 73.92745972 656.88937378 C79.45028105 673.28531993 85.76600584 689.27871475 93 705 C93.37866211 705.83418457 93.75732422 706.66836914 94.14746094 707.52783203 C110.53185233 743.55786184 132.56860011 776.73823674 158 807 C158.43889557 807.52261917 158.87779114 808.04523834 159.32998657 808.58369446 C167.35819853 818.10130439 175.78974997 827.1066602 184.62109375 835.88183594 C186.6378049 837.88773626 188.64347361 839.90423998 190.6484375 841.921875 C197.0311752 848.31127302 203.4378565 854.42072906 210.52905273 860.02392578 C212.97476399 861.97981817 215.3000963 864.02337045 217.62109375 866.125 C221.93100695 869.99255235 226.42268674 873.53797817 231.0625 877 C231.91537598 877.63663574 232.76825195 878.27327148 233.64697266 878.92919922 C314.52613548 938.66634183 410.01768671 971.59571012 510.5 971.3125 C511.81295044 971.31100952 513.12590088 971.30951904 514.4786377 971.3079834 C534.47595285 971.27542488 554.17711488 970.75661077 574 968 C575.06250977 967.85546387 576.12501953 967.71092773 577.21972656 967.56201172 C620.17117175 961.51505896 662.64412458 949.19085279 702 931 C703.41007324 930.35659668 703.41007324 930.35659668 704.84863281 929.70019531 C739.24504263 913.95511325 771.61789215 893.83133181 801 870 C802.44246094 868.84757813 802.44246094 868.84757813 803.9140625 867.671875 C809.52305739 863.15307911 814.90861751 858.44211695 820.19921875 853.5546875 C821.67942978 852.20453686 823.16480195 850.85913283 824.68774414 849.55737305 C830.56147076 844.5362964 836.02370409 839.1285547 841.47290039 833.6574707 C843.05959946 832.06541034 844.65157742 830.4787701 846.24414062 828.89257812 C851.70607519 823.43453174 857.01307754 817.90045531 862 812 C862.8884708 810.97842495 863.77774682 809.95754944 864.66796875 808.9375 C871.84207935 800.57326563 878.50973477 791.90315131 885 783 C885.49113281 782.32984863 885.98226562 781.65969727 886.48828125 780.96923828 C902.09042394 759.59862529 915.51166846 736.75027789 927.04980469 712.94921875 C927.96938825 711.06279655 928.90906044 709.18755161 929.8515625 707.3125 C951.76995568 663.03188325 964.75008423 612.99087568 970 564 C970.08506805 563.27228394 970.17013611 562.54456787 970.25778198 561.7947998 C972.12450089 545.66446036 972.34365119 529.5775887 972.31567383 513.36279297 C972.311062 510.4684283 972.31791041 507.57448591 972.33618164 504.68017578 C972.4975469 478.8256023 970.98340093 453.35728829 966.25 427.875 C966.05908783 426.82962067 966.05908783 426.82962067 965.86431885 425.76312256 C956.09604462 372.44780111 936.98550841 320.45947401 909 274 C908.5659082 273.27780273 908.13181641 272.55560547 907.68457031 271.81152344 C891.33847767 244.78581607 872.0505712 219.74738146 850.53027344 196.64794922 C848.83806758 194.82561521 847.15725992 192.99310722 845.4765625 191.16015625 C837.65009577 182.6006258 837.65009577 182.6006258 829.09765625 174.78515625 C826.8392261 172.86317752 824.68697255 170.84259573 822.53051758 168.80761719 C815.93476225 162.60190726 809.06245013 156.92146197 801.86425781 151.43164062 C799.95569057 149.96597295 798.06673941 148.47761567 796.1796875 146.984375 C776.95939889 131.87717641 756.32078554 118.91722885 735 107 C734.18789063 106.54431641 733.37578125 106.08863281 732.5390625 105.61914062 C680.34207163 76.57687551 621.54693974 59.3955285 562.375 52.6875 C561.65832153 52.60618835 560.94164307 52.52487671 560.20324707 52.44110107 C544.59809192 50.69714375 529.07274688 49.78856521 513.375 49.8125 C512.57119904 49.81343658 511.76739807 49.81437317 510.9392395 49.81533813 C410.64036258 50.06608224 313.41132177 83.08860772 199.80859375 170.40234375 Z " fill="#FEFEFE" transform="translate(0,0)"/>
<path d="M0 0 C3.53879847 2.81329259 6.80170061 5.80717715 10 9 C10.97453125 9.95712891 10.97453125 9.95712891 11.96875 10.93359375 C22.02470259 21.54085953 26.59489262 35.55275289 26.375 49.9375 C26.36412354 50.90751953 26.35324707 51.87753906 26.34204102 52.87695312 C26.19080649 59.65682536 25.68164339 65.70438559 23 72 C22.54753906 73.10214844 22.09507812 74.20429688 21.62890625 75.33984375 C14.85462451 90.3017466 4.08445003 101.37907875 -11.50390625 107.33984375 C-28.92533629 112.90915187 -45.09943204 112.05703689 -61.74145508 104.41479492 C-62.7275325 103.96303391 -63.71360992 103.51127289 -64.72956848 103.04582214 C-65.47881088 102.70070084 -66.22805328 102.35557953 -67 102 C-75.2266491 110.20341459 -83.45054748 118.40957595 -91.6710062 126.61919403 C-95.48872946 130.43171269 -99.30737147 134.24330131 -103.12817383 138.05273438 C-106.81973809 141.73338332 -110.50880944 145.41651437 -114.19621086 149.10133362 C-115.59903551 150.50231954 -117.00273574 151.90242935 -118.40735054 153.30162048 C-120.38404425 155.27098887 -122.3575187 157.24353257 -124.33032227 159.21679688 C-124.9036026 159.78648193 -125.47688293 160.35616699 -126.0675354 160.94311523 C-128.87693362 163.75955921 -131.56501537 166.62582794 -134.15002441 169.65002441 C-139.22671537 175.51065769 -144.78113635 180.9123 -150.26928711 186.3828125 C-151.52189224 187.63511083 -152.77427663 188.88762998 -154.02645969 190.14035034 C-157.36161331 193.47572848 -160.69975502 196.80810036 -164.03855133 200.13983154 C-167.1782059 203.27376506 -170.31511955 206.41043522 -173.45227051 209.546875 C-182.61128134 218.70065138 -191.7746539 227.85006269 -200.9375 237 C-221.418125 257.46 -241.89875 277.92 -263 299 C-164 299 -65 299 37 299 C38.65 294.38 40.3 289.76 42 285 C50.85935556 268.61265771 65.05983838 258.59040237 82.5625 253 C99.34491394 249.13100038 116.56605924 253.06305704 131 262 C134.61859219 264.75725834 137.83436726 267.7377501 141 271 C141.64582031 271.63679688 142.29164063 272.27359375 142.95703125 272.9296875 C153.35797982 283.8518165 157.58538603 298.11104424 157.4375 312.875 C157.42614014 314.46380981 157.42614014 314.46380981 157.41455078 316.0847168 C157.2542186 323.68059999 156.41051574 330.12551215 153 337 C152.39865234 338.35158203 152.39865234 338.35158203 151.78515625 339.73046875 C144.66623034 354.36037736 132.55415986 364.53973894 117.453125 370.32666016 C101.80087558 375.72277314 85.0799057 374.39252236 70.12109375 367.71484375 C56.23399756 360.78095289 46.83722409 349.67444818 40 336 C-60.65 336 -161.3 336 -265 336 C-217.6346875 383.5509375 -217.6346875 383.5509375 -169.3125 432.0625 C-159.33427002 442.095354 -149.35604004 452.12820801 -139.07543945 462.46508789 C-130.14942127 471.41116744 -130.14942127 471.41116744 -121.21940613 480.35325623 C-117.22891243 484.34936039 -113.24677485 488.35357076 -109.27006531 492.36338806 C-104.68787215 496.9836735 -100.09550009 501.59353917 -95.49003626 506.19063344 C-93.13248061 508.54456176 -90.78182782 510.90442046 -88.44061911 513.27467167 C-85.93740187 515.80750322 -83.41662308 518.32140323 -80.89033508 520.83119202 C-80.15804782 521.58095527 -79.42576056 522.33071852 -78.67128277 523.10320187 C-77.99230497 523.77023443 -77.31332718 524.437267 -76.6137743 525.12451267 C-76.03242247 525.70814282 -75.45107065 526.29177297 -74.8521021 526.89308888 C-72.98987111 528.25493388 -72.98987111 528.25493388 -70.43966645 527.74978632 C-67.69346502 526.90579215 -65.21214064 525.81159226 -62.625 524.5625 C-49.34531796 518.15227884 -32.81986265 517.66204913 -18.75 522.0625 C-2.82238813 528.34878584 9.24552655 538.67111517 16.5078125 554.23046875 C22.72217992 568.80759918 23.46173396 585.95100387 18.25390625 601.06640625 C11.48102685 616.91199015 -1.10987399 629.36696575 -17 636 C-17.76054688 636.32097656 -18.52109375 636.64195312 -19.3046875 636.97265625 C-32.53902159 641.51799464 -50.35969083 640.8155685 -63 635 C-80.19094809 626.43632179 -90.74952426 613.94082745 -97.11328125 595.83203125 C-98.23839536 590.96975397 -98.32978054 586.4108381 -98.3125 581.4375 C-98.32861328 580.53708984 -98.34472656 579.63667969 -98.36132812 578.70898438 C-98.36526989 573.10773476 -97.58837838 568.66121045 -95.89575195 563.31225586 C-94.98639573 559.12746165 -94.5288283 556.96079385 -96.43202209 553.07987976 C-98.8726752 550.17658791 -101.50036809 547.60980109 -104.3046875 545.0703125 C-105.30487979 544.10445726 -106.30125431 543.1346345 -107.29397583 542.16110229 C-109.90916879 539.61616327 -112.57068082 537.12587086 -115.24627686 534.64471436 C-117.94000046 532.13127895 -120.58995818 529.57269221 -123.2421875 527.015625 C-126.23682957 524.13066486 -129.2375104 521.25456881 -132.26901245 518.40823364 C-133.17910065 517.55309174 -134.08918884 516.69794983 -135.02685547 515.81689453 C-135.81977997 515.07746613 -136.61270447 514.33803772 -137.42965698 513.57620239 C-139.4684806 511.53273105 -141.35914747 509.47385345 -143.24543285 507.2949419 C-146.65665002 503.37959418 -150.13065841 499.52899019 -153.64341736 495.70472717 C-154.27490631 495.0166441 -154.90639526 494.32856102 -155.55702025 493.61962694 C-157.65439882 491.33707616 -159.7543312 489.05690386 -161.85522461 486.77758789 C-162.59511753 485.97463287 -163.33501045 485.17167786 -164.09732437 484.34439087 C-178.3312153 468.91452791 -192.77629106 453.68947427 -207.32523465 438.55688692 C-209.71289564 436.07315973 -212.09881089 433.58776217 -214.48364258 431.10131836 C-214.9581319 430.60667202 -215.43262122 430.11202567 -215.92148901 429.60239004 C-222.58417814 422.64920764 -229.14255207 415.61008002 -235.62789853 408.49136309 C-280.71278317 354.69313425 -280.71278317 354.69313425 -343.04215717 330.15855694 C-360.15710784 329.44207749 -377.27865147 331.43636783 -394 335 C-394.13096069 335.6160611 -394.26192139 336.23212219 -394.39685059 336.86685181 C-394.57204224 337.67601044 -394.74723389 338.48516907 -394.92773438 339.31884766 C-395.09994507 340.12053375 -395.27215576 340.92221985 -395.44958496 341.74819946 C-398.27268761 353.29778223 -407.73450022 363.44800015 -417.375 369.875 C-432.10685252 378.51520042 -448.41442149 382.63545386 -465.33984375 378.74609375 C-482.52708628 373.9255896 -496.12164555 364.25492808 -505.4609375 348.9453125 C-512.91148344 334.68716114 -514.74442226 316.30293646 -510.09765625 300.828125 C-506.16550933 290.69689947 -500.71151995 282.61425754 -493 275 C-492.45988281 274.43796875 -491.91976562 273.8759375 -491.36328125 273.296875 C-480.86230837 263.24556595 -465.77629897 259.12087431 -451.625 258.5625 C-434.49742184 259.04290768 -419.16610472 265.95950404 -407 278 C-402.43336144 283.34593424 -398.55416153 288.98109524 -396.3828125 295.71289062 C-396.12129395 296.51746704 -395.85977539 297.32204346 -395.59033203 298.15100098 C-395.39552246 298.76117065 -395.20071289 299.37134033 -395 300 C-384.54225936 300.031497 -374.08527712 300.02539634 -363.62760735 299.97153378 C-358.77137886 299.94769793 -353.9158364 299.93672645 -349.05957031 299.95532227 C-344.37125511 299.97279886 -339.68417134 299.95626413 -334.99600601 299.91632271 C-333.20910897 299.9070414 -331.42210513 299.90993575 -329.63525009 299.92530632 C-320.18945429 300.3956438 -320.18945429 300.3956438 -311.60699463 297.38162231 C-309.76561987 295.30184572 -309.76561987 295.30184572 -308 292 C-307.34 292 -306.68 292 -306 292 C-305.731875 291.360625 -305.46375 290.72125 -305.1875 290.0625 C-304 288 -304 288 -301 287 C-300.3032079 285.68215972 -299.64043987 284.34612741 -299 283 C-297.40803689 281.17805058 -297.40803689 281.17805058 -295.48149395 279.28009129 C-294.74763208 278.5521145 -294.01377021 277.82413772 -293.2576701 277.07410103 C-292.44824123 276.28141176 -291.63881236 275.48872249 -290.80485535 274.67201233 C-289.94756736 273.82430454 -289.09027937 272.97659675 -288.20701295 272.10320085 C-286.32347055 270.2420386 -284.43819299 268.38284708 -282.54975319 266.52667427 C-279.47717473 263.50647664 -276.41160669 260.47922717 -273.3470459 257.45089722 C-270.04650363 254.19007407 -266.74538988 250.92983701 -263.44190347 247.67199624 C-255.25154028 239.59470793 -247.07621666 231.50242674 -238.9099884 223.40074158 C-238.31944956 222.81493179 -237.72891071 222.22912201 -237.12047675 221.62556041 C-234.10036663 218.62962863 -231.08042346 215.63352865 -228.06060088 212.63730705 C-221.83792153 206.46328014 -215.61484657 200.28965355 -209.38989258 194.11791992 C-208.45285095 193.18887025 -208.45285095 193.18887025 -207.4968792 192.2410519 C-197.37176597 182.20385664 -187.2216176 172.19232345 -177.06294032 162.18911404 C-166.63394176 151.9183846 -156.23559459 141.61733526 -145.86428148 131.28835672 C-139.4658004 124.91804703 -133.04412005 118.57310308 -126.59059647 112.25855296 C-122.17005714 107.92884249 -117.7793488 103.57031837 -113.41098311 99.18797875 C-110.88927708 96.65998957 -108.35634972 94.14685459 -105.78692818 91.66729927 C-103.00070099 88.97787788 -100.2788359 86.22868442 -97.56022644 83.47084045 C-96.73964396 82.69822768 -95.91906148 81.9256149 -95.07361287 81.12958962 C-92.82708035 78.78761564 -91.27412653 76.9894278 -90 74 C-90.21153233 70.4425353 -90.93720474 67.47023059 -92.03561765 64.0849027 C-93.55197196 59.23433125 -93.49193047 54.48138994 -93.4375 49.4375 C-93.42614014 47.93944824 -93.42614014 47.93944824 -93.41455078 46.41113281 C-93.2488799 38.99826769 -92.28735683 32.71898638 -89 26 C-88.59910156 25.09765625 -88.19820312 24.1953125 -87.78515625 23.265625 C-80.54576859 8.4091425 -68.10862166 -2.03098987 -52.5625 -7.4375 C-35.06739081 -12.86366043 -15.1546754 -10.58012168 0 0 Z " fill="#00A0FD" transform="translate(686,185)"/>
<path d="M0 0 C3.61859219 2.75725834 6.83436726 5.7377501 10 9 C10.64582031 9.63679688 11.29164063 10.27359375 11.95703125 10.9296875 C22.35797982 21.8518165 26.58538603 36.11104424 26.4375 50.875 C26.42992676 51.93420654 26.42235352 52.99341309 26.41455078 54.0847168 C26.2542186 61.68059999 25.41051574 68.12551215 22 75 C21.59910156 75.90105469 21.19820312 76.80210937 20.78515625 77.73046875 C13.66623034 92.36037736 1.55415986 102.53973894 -13.546875 108.32666016 C-29.19912442 113.72277314 -45.9200943 112.39252236 -60.87890625 105.71484375 C-76.17342581 98.07821994 -86.54679133 85.37731414 -92.75 69.75 C-97.6711061 54.9866817 -95.81569875 37.74033165 -89.3125 23.8125 C-80.31550377 7.05338938 -66.59270123 -3.11680495 -48.625 -8.875 C-31.83039712 -12.97005556 -14.46773035 -8.95786418 0 0 Z " fill="#FEFEFE" transform="translate(817,447)"/>
<path d="M0 0 C10.60003737 9.04031759 18.37626922 22.0255422 20.375 35.9375 C21.65794244 55.5957794 18.89605718 72.30193816 5.6875 87.6875 C-5.84229359 99.7860278 -20.92982008 106.05454601 -37.47265625 107.12109375 C-55.52035919 107.55261407 -70.84628701 100.32847781 -83.875 88.125 C-96.47545597 74.87902887 -100.08954506 59.4276289 -99.83203125 41.73828125 C-99.32683765 25.83553072 -91.77258991 12.94448968 -80.625 1.9375 C-80.08488281 1.37546875 -79.54476562 0.8134375 -78.98828125 0.234375 C-56.91935243 -20.88953671 -22.70686674 -17.14792426 0 0 Z " fill="#FEFEFE" transform="translate(273.625,458.0625)"/>
<path d="M0 0 C3.53879847 2.81329259 6.80170061 5.80717715 10 9 C10.6496875 9.63808594 11.299375 10.27617187 11.96875 10.93359375 C22.02470259 21.54085953 26.59489262 35.55275289 26.375 49.9375 C26.36412354 50.90751953 26.35324707 51.87753906 26.34204102 52.87695312 C26.19080649 59.65682536 25.68164339 65.70438559 23 72 C22.54753906 73.10214844 22.09507812 74.20429688 21.62890625 75.33984375 C14.85462451 90.3017466 4.08445003 101.37907875 -11.50390625 107.33984375 C-29.20310121 112.99794817 -45.97124566 112.27430543 -62.75 103.875 C-78.05898522 95.03565964 -86.66593498 82.61935962 -92 66 C-94.89838795 53.40130963 -94.70894246 37.66843412 -89 26 C-88.39865234 24.64648438 -88.39865234 24.64648438 -87.78515625 23.265625 C-80.54576859 8.4091425 -68.10862166 -2.03098987 -52.5625 -7.4375 C-35.06739081 -12.86366043 -15.1546754 -10.58012168 0 0 Z " fill="#FEFEFE" transform="translate(686,185)"/>
<path d="M0 0 C13.71280912 9.46061757 23.58481917 22.03708337 27.125 38.6875 C28.52136328 57.17342382 26.95365781 73.39240542 15.0546875 88.27734375 C7.6632478 96.84059707 -0.40368665 103.31644718 -10.875 107.6875 C-11.63554688 108.00847656 -12.39609375 108.32945312 -13.1796875 108.66015625 C-26.41402159 113.20549464 -44.23469083 112.5030685 -56.875 106.6875 C-74.06932405 98.12214005 -84.6104249 85.63150439 -90.98828125 67.52734375 C-94.70627842 51.42694193 -92.13945163 34.16345096 -84.015625 19.9296875 C-65.44727615 -8.19390656 -29.20560123 -17.53945198 0 0 Z " fill="#FEFEFE" transform="translate(679.875,713.3125)"/>
<path d="M0 0 C0.495 1.485 0.495 1.485 1 3 C-2.3 5.97 -5.6 8.94 -9 12 C-33.75 36.75 -58.5 61.5 -84 87 C13.68 87.33 111.36 87.66 212 88 C212 88.66 212 89.32 212 90 C112.67 90 13.34 90 -89 90 C-82.25 82.125 -82.25 82.125 -79.12747192 79.00721741 C-78.42084915 78.29921997 -77.71422638 77.59122253 -76.9861908 76.86177063 C-76.23165115 76.11082626 -75.47711151 75.3598819 -74.69970703 74.58618164 C-73.48407326 73.37032883 -73.48407326 73.37032883 -72.24388123 72.12991333 C-69.58422366 69.47094833 -66.92104946 66.81553569 -64.2578125 64.16015625 C-62.40528887 62.30949913 -60.55298696 60.45862003 -58.70089722 58.60752869 C-54.3363152 54.24604323 -49.96919248 49.88711114 -45.60113037 45.52911133 C-40.62448894 40.56368329 -35.65071823 35.5953839 -30.67717576 30.62685215 C-20.45462131 20.41472413 -10.22850167 10.20617123 0 0 Z " fill="#191725" transform="translate(511,395)"/>
<path d="M0 0 C0.33 0 0.66 0 1 0 C2.02680904 5.07847313 2.14550557 9.9352876 2.1328125 15.08984375 C2.13376923 15.95259415 2.13472595 16.81534454 2.13571167 17.70423889 C2.13638972 19.52214633 2.13456167 21.34005625 2.13037109 23.15795898 C2.12502411 25.92502339 2.13032547 28.69192502 2.13671875 31.45898438 C2.13605777 33.23177119 2.13477621 35.0045579 2.1328125 36.77734375 C2.13483673 37.5973436 2.13686096 38.41734344 2.13894653 39.26219177 C2.12004578 43.94477691 1.77687882 48.38077266 1 53 C0.67 53 0.34 53 0 53 C-0.82327592 47.25505473 -1.14761656 41.69772625 -1.1328125 35.8984375 C-1.13376923 35.05834137 -1.13472595 34.21824524 -1.13571167 33.35269165 C-1.13638778 31.58961919 -1.13457349 29.82654415 -1.13037109 28.06347656 C-1.12500119 25.37559402 -1.1303424 22.68787752 -1.13671875 20 C-1.13605813 18.27864547 -1.1347773 16.55729104 -1.1328125 14.8359375 C-1.13584885 13.64041763 -1.13584885 13.64041763 -1.13894653 12.42074585 C-1.12118663 8.16954787 -0.84120638 4.18765402 0 0 Z " fill="#2B303B" transform="translate(52,485)"/>
<path d="M0 0 C2.49851556 -0.00998408 4.99629521 -0.04129655 7.49462891 -0.07226562 C9.09228039 -0.07877378 10.68993757 -0.08403275 12.28759766 -0.08789062 C13.03013794 -0.10023743 13.77267822 -0.11258423 14.53771973 -0.12530518 C16.60595703 -0.11621094 16.60595703 -0.11621094 19.94384766 0.24023438 C20.60384766 1.23023438 21.26384766 2.22023437 21.94384766 3.24023438 C7.09384766 3.24023438 -7.75615234 3.24023438 -23.05615234 3.24023438 C-23.05615234 3.57023437 -23.05615234 3.90023437 -23.05615234 4.24023438 C-27.34615234 4.24023438 -31.63615234 4.24023438 -36.05615234 4.24023438 C-35.72615234 3.25023437 -35.39615234 2.26023438 -35.05615234 1.24023438 C-23.367806 0.48558138 -11.71348738 0.02836768 0 0 Z " fill="#3C4451" transform="translate(511.05615234375,49.759765625)"/>
<path d="M0 0 C1.485 0.99 1.485 0.99 3 2 C3.38384509 4.93597539 3.603843 7.68027373 3.6875 10.625 C3.73874023 11.82769531 3.73874023 11.82769531 3.79101562 13.0546875 C3.87356878 15.03596318 3.93845916 17.01796037 4 19 C3.01 19 2.02 19 1 19 C1.020625 18.195625 1.04125 17.39125 1.0625 16.5625 C1.29633621 14.06645115 1.29633621 14.06645115 0 13 C-0.07258946 10.81360547 -0.08373783 8.62499611 -0.0625 6.4375 C-0.05347656 5.23996094 -0.04445312 4.04242188 -0.03515625 2.80859375 C-0.02355469 1.88175781 -0.01195312 0.95492188 0 0 Z " fill="#242C3A" transform="translate(171,498)"/>
<path d="M0 0 C3.80427705 3.41073115 6.22774561 7.27961581 8.8125 11.625 C9.23208984 12.305625 9.65167969 12.98625 10.08398438 13.6875 C11.12304523 15.41983869 12.069825 17.20684097 13 19 C12.67 19.66 12.34 20.32 12 21 C8.74226101 17.99285632 7.04489485 16.2256777 6 12 C5.02458701 10.26533203 3.99991668 8.55778765 2.9375 6.875 C0 2.21647059 0 2.21647059 0 0 Z " fill="#0E131B" transform="translate(897,257)"/>
<path d="M0 0 C0.99 0 1.98 0 3 0 C1.44499019 3.81684226 -1.03595495 6.19195732 -4 9 C-4.66 8.67 -5.32 8.34 -6 8 C-5.1875 6.0625 -5.1875 6.0625 -4 4 C-3.01 3.67 -2.02 3.34 -1 3 C-0.67 2.01 -0.34 1.02 0 0 Z " fill="#01A2EA" transform="translate(386,469)"/>
<path d="M0 0 C0 3.72055546 -0.81297638 5.01106771 -3 8 C-6.1875 10.3125 -6.1875 10.3125 -9 12 C-9.66 11.67 -10.32 11.34 -11 11 C-7.37 7.37 -3.74 3.74 0 0 Z " fill="#029CDC" transform="translate(403,452)"/>
<path d="M0 0 C0.99 0.66 1.98 1.32 3 2 C2.13375 2.53625 1.2675 3.0725 0.375 3.625 C-3.22123063 6.00536218 -6.02798106 8.88645635 -9 12 C-9.66 11.67 -10.32 11.34 -11 11 C-7.37 7.37 -3.74 3.74 0 0 Z " fill="#01A8E9" transform="translate(483,372)"/>
<path d="M0 0 C1.485 0.99 1.485 0.99 3 2 C3.3984375 4.09375 3.3984375 4.09375 3.375 6.5 C3.38273438 7.2940625 3.39046875 8.088125 3.3984375 8.90625 C3.26695312 9.5971875 3.13546875 10.288125 3 11 C2.01 11.66 1.02 12.32 0 13 C0 8.71 0 4.42 0 0 Z " fill="#252E3C" transform="translate(969,531)"/>
<path d="M0 0 C0.33 0 0.66 0 1 0 C1.33 4.62 1.66 9.24 2 14 C1.01 14.66 0.02 15.32 -1 16 C-1.02712153 14.083412 -1.04645097 12.1667127 -1.0625 10.25 C-1.07410156 9.18265625 -1.08570313 8.1153125 -1.09765625 7.015625 C-1.01510087 4.46631499 -0.74617558 2.42066409 0 0 Z " fill="#2A303B" transform="translate(969,453)"/>
<path d="M0 0 C3.7952131 1.49097658 5.61042731 3.75700849 8 7 C5 7 5 7 2.3125 4.625 C0 2 0 2 0 0 Z " fill="#2B3038" transform="translate(834,181)"/>
<path d="M0 0 C3.36720387 1.39332574 4.9859524 2.9789286 7 6 C4 6 4 6 1.8125 4.125 C0 2 0 2 0 0 Z " fill="#0498DA" transform="translate(549,697)"/>
<path d="M0 0 C0.33 0.66 0.66 1.32 1 2 C-1.3125 4.5 -1.3125 4.5 -4 7 C-4.99 7 -5.98 7 -7 7 C-4.69 4.69 -2.38 2.38 0 0 Z " fill="#019DD9" transform="translate(411,444)"/>
<path d="M0 0 C0.99 0.33 1.98 0.66 3 1 C-0.465 3.97 -0.465 3.97 -4 7 C-4.66 6.67 -5.32 6.34 -6 6 C-4.02 4.02 -2.04 2.04 0 0 Z " fill="#02A0E1" transform="translate(440,415)"/>
</svg>
